<svg xmlns="http://www.w3.org/2000/svg" viewBox="0 0 75 75"><path d="M37.9 22.8c1.3 0 2.4-1.1 2.4-2.4V15c0-1.3-1.1-2.4-2.4-2.4-1.3 0-2.4 1.1-2.4 2.4v5.4c-.1 1.3 1 2.4 2.4 2.4zm-16.2 5.3c1 1 2.5 1 3.5 0s1-2.5 0-3.4l-3.8-3.8c-1-1-2.5-1-3.5 0s-1 2.5 0 3.5l3.8 3.7zM19.8 40c0-1.3-1.1-2.4-2.4-2.4H12c-1.3 0-2.4 1.1-2.4 2.4 0 1.3 1.1 2.4 2.4 2.4h5.4c1.3 0 2.4-1.1 2.4-2.4zm1.8 13.6l-3.8 3.8c-1 1-1 2.5 0 3.5s2.5 1 3.4 0l3.8-3.8c1-1 1-2.5 0-3.4-.9-1.1-2.4-1.1-3.4-.1zm16.2 5.3c-1.3 0-2.4 1.1-2.4 2.4v5.4c0 1.3 1.1 2.4 2.4 2.4 1.3 0 2.4-1.1 2.4-2.4v-5.4c0-1.3-1-2.4-2.4-2.4zm16.3-5.2c-1-1-2.5-1-3.5 0s-1 2.5 0 3.4l3.8 3.8c1 1 2.5 1 3.4 0 1-1 1-2.5 0-3.4l-3.7-3.8zm9.6-15.3h-5.4c-1.3 0-2.4 1.1-2.4 2.4 0 1.3 1.1 2.4 2.4 2.4h5.4c1.3 0 2.4-1.1 2.4-2.4.1-1.3-1-2.4-2.4-2.4zM54 28.1l3.8-3.8c1-1 1-2.5 0-3.4-1-1-2.5-1-3.4 0l-3.8 3.8c-1 1-1 2.5 0 3.4.9 1 2.5 1 3.4 0zm-16.1-2.4c-8.4 0-15.2 6.8-15.2 15.2 0 8.4 6.8 15.2 15.2 15.2S53 49.3 53 40.9c0-8.4-6.8-15.2-15.1-15.2zm0 25.5c-5.7 0-10.3-4.6-10.3-10.3 0-5.7 4.6-10.3 10.3-10.3 5.7 0 10.3 4.6 10.3 10.3 0 5.7-4.6 10.3-10.3 10.3z" fill="#ffc331"/></svg>