<svg id="Warstwa_1" xmlns="http://www.w3.org/2000/svg" viewBox="0 0 75 75" width="75" height="75"><style>.st0{fill:#036}</style><g id="chm"><path class="st0" d="M52.9 32.7c-2-8.3-9.6-8.7-11.8-8.1-2.3-2.4-6.2-4.1-10.1-4.1-7.8 0-14.1 6.1-14.7 13.8-2.5 1.5-4.3 4.3-4.3 7.5 0 4.8 3.8 8.6 8.5 8.6h32.8c4.8 0 8.7-4 8.7-8.9 0 .1 0-8.8-9.1-8.8zm.4 14.5h-32c-3.2 0-5.5-2.3-5.5-5.4 0-2.5 1.5-4.6 3.9-5.4C20 24.8 30 24.2 31.1 24.2c3.3 0 6.6 1.7 8.8 4.1 4.3-1.4 10.2 1.9 9.5 8.4 1.7-.7 3.4-.6 3.8-.6 2.4 0 5.3 2.1 5.3 5.7.1 2.9-2.3 5.4-5.2 5.4z" id="chm_1_"/></g><path class="st0" d="M61.1 23.3h-.6c-2.4-3.8-6.6-6.2-11.3-6.2-4.4 0-8.3 2.1-10.8 5.5-.6.7 2.3 2.9 3.2 1.9 1.8-2.3 4.5-3.7 7.6-3.7 4.3 0 8 2.8 9.3 6.8.8-.4 1.7-.6 2.7-.6 3.7 0 6.6 3 6.6 6.6 0 3.4-2.6 6.2-5.9 6.6-1.4.1-1 3.8-.2 3.7 5.4-.3 9.8-4.8 9.8-10.3-.1-5.7-4.7-10.3-10.4-10.3z"/></svg>